<svg width="282" height="70" viewBox="0 0 282 70" fill="none" xmlns="http://www.w3.org/2000/svg">
<path d="M83.4953 52.7803C81.7975 52.7803 80.2624 52.4896 78.8902 51.9081C77.5413 51.3267 76.4714 50.4894 75.6807 49.3963C74.8899 48.3032 74.4829 47.0124 74.4596 45.5239H79.6926C79.7624 46.524 80.1113 47.3147 80.7392 47.8962C81.3904 48.4776 82.2742 48.7683 83.3906 48.7683C84.5302 48.7683 85.4257 48.5009 86.0769 47.9659C86.7281 47.4078 87.0537 46.6868 87.0537 45.803C87.0537 45.082 86.8328 44.4889 86.3909 44.0238C85.949 43.5586 85.3908 43.1981 84.7163 42.9423C84.0651 42.6632 83.158 42.3608 81.9951 42.0352C80.4136 41.5701 79.1228 41.1165 78.1227 40.6746C77.1459 40.2095 76.297 39.5234 75.576 38.6163C74.8783 37.686 74.5294 36.4534 74.5294 34.9184C74.5294 33.4764 74.8899 32.2205 75.6109 31.1506C76.3319 30.0807 77.3436 29.2667 78.646 28.7085C79.9485 28.1271 81.437 27.8364 83.1115 27.8364C85.6233 27.8364 87.6584 28.4527 89.2167 29.6854C90.7982 30.8948 91.6704 32.5926 91.8332 34.7788H86.4606C86.4141 33.9415 86.0536 33.2554 85.3791 32.7205C84.7279 32.1623 83.8558 31.8832 82.7626 31.8832C81.8091 31.8832 81.0416 32.1274 80.4601 32.6158C79.9019 33.1042 79.6229 33.8136 79.6229 34.7439C79.6229 35.3951 79.8322 35.9417 80.2508 36.3836C80.6927 36.8022 81.2276 37.1511 81.8556 37.4302C82.5068 37.686 83.4139 37.9884 84.5768 38.3372C86.1583 38.8024 87.4491 39.2675 88.4492 39.7327C89.4492 40.1979 90.3098 40.8956 91.0308 41.8259C91.7518 42.7562 92.1123 43.9772 92.1123 45.489C92.1123 46.7914 91.775 48.0008 91.1005 49.1172C90.4261 50.2336 89.4376 51.129 88.1352 51.8035C86.8328 52.4547 85.2861 52.7803 83.4953 52.7803ZM120.349 32.9298C122.721 32.9298 124.628 33.6624 126.07 35.1277C127.535 36.5697 128.268 38.5931 128.268 41.1979V52.5361H123.384V41.8608C123.384 40.349 123 39.1978 122.232 38.407C121.465 37.593 120.418 37.186 119.093 37.186C117.767 37.186 116.709 37.593 115.918 38.407C115.15 39.1978 114.767 40.349 114.767 41.8608V52.5361H109.883V41.8608C109.883 40.349 109.499 39.1978 108.731 38.407C107.964 37.593 106.917 37.186 105.592 37.186C104.243 37.186 103.173 37.593 102.382 38.407C101.614 39.1978 101.231 40.349 101.231 41.8608V52.5361H96.3466V33.2089H101.231V35.5463C101.859 34.7323 102.661 34.0927 103.638 33.6275C104.638 33.1624 105.731 32.9298 106.917 32.9298C108.429 32.9298 109.778 33.2554 110.964 33.9066C112.15 34.5346 113.069 35.4417 113.72 36.6278C114.348 35.5114 115.255 34.616 116.441 33.9415C117.651 33.2671 118.953 32.9298 120.349 32.9298ZM131.647 42.8027C131.647 40.8491 132.03 39.1164 132.798 37.6046C133.589 36.0929 134.647 34.93 135.973 34.116C137.322 33.3019 138.822 32.8949 140.473 32.8949C141.915 32.8949 143.171 33.1857 144.241 33.7671C145.334 34.3485 146.206 35.0812 146.857 35.965V33.2089H151.776V52.5361H146.857V49.7103C146.229 50.6173 145.357 51.3732 144.241 51.9779C143.148 52.5593 141.88 52.8501 140.438 52.8501C138.81 52.8501 137.322 52.4314 135.973 51.5941C134.647 50.7569 133.589 49.5824 132.798 48.0706C132.03 46.5356 131.647 44.7796 131.647 42.8027ZM146.857 42.8725C146.857 41.6864 146.625 40.6746 146.16 39.8374C145.694 38.9768 145.066 38.3256 144.276 37.8837C143.485 37.4186 142.636 37.186 141.729 37.186C140.822 37.186 139.985 37.4069 139.217 37.8488C138.45 38.2907 137.822 38.9419 137.333 39.8025C136.868 40.6398 136.635 41.6398 136.635 42.8027C136.635 43.9656 136.868 44.989 137.333 45.8727C137.822 46.7333 138.45 47.3961 139.217 47.8613C140.008 48.3264 140.845 48.559 141.729 48.559C142.636 48.559 143.485 48.3381 144.276 47.8962C145.066 47.431 145.694 46.7798 146.16 45.9425C146.625 45.082 146.857 44.0586 146.857 42.8725ZM161.431 36.2092C162.059 35.1858 162.873 34.3834 163.873 33.802C164.896 33.2205 166.059 32.9298 167.361 32.9298V38.0581H166.07C164.535 38.0581 163.373 38.4186 162.582 39.1396C161.814 39.8606 161.431 41.1165 161.431 42.9074V52.5361H156.546V33.2089H161.431V36.2092ZM176.338 37.2209V46.5705C176.338 47.2217 176.489 47.6985 176.791 48.0008C177.117 48.2799 177.652 48.4195 178.396 48.4195H180.663V52.5361H177.593C173.477 52.5361 171.418 50.5359 171.418 46.5356V37.2209H169.116V33.2089H171.418V28.4294H176.338V33.2089H180.663V37.2209H176.338ZM200.747 28.1852V32.1274H194.259V52.5361H189.374V32.1274H182.886V28.1852H200.747ZM209.195 36.2092C209.823 35.1858 210.637 34.3834 211.637 33.802C212.661 33.2205 213.824 32.9298 215.126 32.9298V38.0581H213.835C212.3 38.0581 211.137 38.4186 210.346 39.1396C209.579 39.8606 209.195 41.1165 209.195 42.9074V52.5361H204.311V33.2089H209.195V36.2092ZM217.16 42.8027C217.16 40.8491 217.543 39.1164 218.311 37.6046C219.102 36.0929 220.16 34.93 221.486 34.116C222.835 33.3019 224.335 32.8949 225.986 32.8949C227.428 32.8949 228.684 33.1857 229.754 33.7671C230.847 34.3485 231.719 35.0812 232.37 35.965V33.2089H237.289V52.5361H232.37V49.7103C231.742 50.6173 230.87 51.3732 229.754 51.9779C228.661 52.5593 227.393 52.8501 225.951 52.8501C224.323 52.8501 222.835 52.4314 221.486 51.5941C220.16 50.7569 219.102 49.5824 218.311 48.0706C217.543 46.5356 217.16 44.7796 217.16 42.8027ZM232.37 42.8725C232.37 41.6864 232.138 40.6746 231.673 39.8374C231.207 38.9768 230.579 38.3256 229.789 37.8837C228.998 37.4186 228.149 37.186 227.242 37.186C226.335 37.186 225.498 37.4069 224.73 37.8488C223.963 38.2907 223.335 38.9419 222.846 39.8025C222.381 40.6398 222.149 41.6398 222.149 42.8027C222.149 43.9656 222.381 44.989 222.846 45.8727C223.335 46.7333 223.963 47.3961 224.73 47.8613C225.521 48.3264 226.358 48.559 227.242 48.559C228.149 48.559 228.998 48.3381 229.789 47.8962C230.579 47.431 231.207 46.7798 231.673 45.9425C232.138 45.082 232.37 44.0586 232.37 42.8725ZM240.804 42.8725C240.804 40.8723 241.211 39.128 242.025 37.6395C242.839 36.1278 243.967 34.9649 245.409 34.1508C246.851 33.3136 248.502 32.8949 250.363 32.8949C252.758 32.8949 254.735 33.4996 256.293 34.709C257.875 35.8952 258.933 37.5697 259.468 39.7327H254.2C253.921 38.8954 253.444 38.2442 252.77 37.7791C252.118 37.2906 251.304 37.0464 250.328 37.0464C248.932 37.0464 247.827 37.5581 247.013 38.5814C246.199 39.5815 245.792 41.0119 245.792 42.8725C245.792 44.7099 246.199 46.1402 247.013 47.1636C247.827 48.1636 248.932 48.6637 250.328 48.6637C252.305 48.6637 253.595 47.7799 254.2 46.0123H259.468C258.933 48.1055 257.875 49.7684 256.293 51.0011C254.712 52.2337 252.735 52.8501 250.363 52.8501C248.502 52.8501 246.851 52.4431 245.409 51.629C243.967 50.7918 242.839 49.6289 242.025 48.1404C241.211 46.6286 240.804 44.8727 240.804 42.8725ZM274.489 52.5361L267.93 44.3028V52.5361H263.046V26.72H267.93V41.4073L274.419 33.2089H280.768L272.256 42.9074L280.838 52.5361H274.489Z" fill="white"/>
<path d="M14.3181 55.4552C11.7016 52.7902 9.63018 49.7013 8.10389 46.1884C6.5776 42.6755 5.81445 38.9083 5.81445 34.8866C5.81445 30.8165 6.5776 27.025 8.10389 23.5121C9.63018 19.9992 11.7016 16.9345 14.3181 14.3181L18.4608 18.4608C16.3289 20.5928 14.6572 23.0639 13.4459 25.8742C12.2346 28.6846 11.6289 31.6887 11.6289 34.8866C11.6289 38.133 12.2346 41.1614 13.4459 43.9717C14.6572 46.782 16.3289 49.2289 18.4608 51.3124L14.3181 55.4552ZM22.531 47.2423C20.9804 45.6433 19.7449 43.79 18.8242 41.6822C17.9036 39.5745 17.4433 37.3093 17.4433 34.8866C17.4433 32.4155 17.9036 30.126 18.8242 28.0183C19.7449 25.9106 20.9804 24.0815 22.531 22.5309L26.6737 26.6737C25.6078 27.7397 24.7719 28.9753 24.1663 30.3804C23.5606 31.7856 23.2578 33.2876 23.2578 34.8866C23.2578 36.4856 23.5606 37.9876 24.1663 39.3928C24.7719 40.798 25.6078 42.0335 26.6737 43.0995L22.531 47.2423ZM34.8866 40.701C33.2877 40.701 31.9188 40.1317 30.7802 38.9931C29.6415 37.8544 29.0722 36.4856 29.0722 34.8866C29.0722 33.2876 29.6415 31.9188 30.7802 30.7802C31.9188 29.6415 33.2877 29.0722 34.8866 29.0722C36.4856 29.0722 37.8544 29.6415 38.9931 30.7802C40.1317 31.9188 40.7011 33.2876 40.7011 34.8866C40.7011 36.4856 40.1317 37.8544 38.9931 38.9931C37.8544 40.1317 36.4856 40.701 34.8866 40.701ZM47.2423 47.2423L43.0995 43.0995C44.1655 42.0335 45.0013 40.798 45.607 39.3928C46.2127 37.9876 46.5155 36.4856 46.5155 34.8866C46.5155 33.2876 46.2127 31.7856 45.607 30.3804C45.0013 28.9753 44.1655 27.7397 43.0995 26.6737L47.2423 22.5309C48.7928 24.0815 50.0284 25.9106 50.949 28.0183C51.8696 30.126 52.3299 32.4155 52.3299 34.8866C52.3299 37.3093 51.8696 39.5745 50.949 41.6822C50.0284 43.79 48.7928 45.6433 47.2423 47.2423ZM55.4552 55.4552L51.3124 51.3124C53.4444 49.1804 55.116 46.7093 56.3273 43.899C57.5387 41.0887 58.1444 38.0846 58.1444 34.8866C58.1444 31.6402 57.5387 28.6119 56.3273 25.8016C55.116 22.9913 53.4444 20.5443 51.3124 18.4608L55.4552 14.3181C58.0717 16.9345 60.1431 19.9992 61.6694 23.5121C63.1956 27.025 63.9588 30.8165 63.9588 34.8866C63.9588 38.9083 63.1956 42.6755 61.6694 46.1884C60.1431 49.7013 58.0717 52.7902 55.4552 55.4552Z" fill="white"/>
</svg>
