<svg width="178" height="37" viewBox="0 0 178 37" fill="none" xmlns="http://www.w3.org/2000/svg">
<path d="M41.56 25.1255C40.6871 25.1255 39.898 24.9761 39.1925 24.6772C38.499 24.3782 37.949 23.9478 37.5425 23.3858C37.1359 22.8238 36.9267 22.1602 36.9147 21.395H39.605C39.6409 21.9091 39.8203 22.3157 40.1431 22.6146C40.4779 22.9135 40.9323 23.063 41.5062 23.063C42.0921 23.063 42.5524 22.9255 42.8872 22.6505C43.222 22.3635 43.3894 21.9928 43.3894 21.5385C43.3894 21.1678 43.2758 20.8629 43.0486 20.6237C42.8215 20.3846 42.5345 20.1993 42.1877 20.0677C41.8529 19.9243 41.3866 19.7688 40.7888 19.6014C39.9757 19.3623 39.3121 19.1291 38.7979 18.9019C38.2957 18.6628 37.8593 18.3101 37.4886 17.8437C37.1299 17.3655 36.9506 16.7317 36.9506 15.9426C36.9506 15.2012 37.1359 14.5556 37.5066 14.0055C37.8772 13.4555 38.3974 13.037 39.067 12.7501C39.7366 12.4511 40.5018 12.3017 41.3627 12.3017C42.6541 12.3017 43.7003 12.6185 44.5014 13.2523C45.3145 13.874 45.7629 14.7469 45.8466 15.8708H43.0845C43.0606 15.4404 42.8753 15.0877 42.5285 14.8126C42.1937 14.5257 41.7453 14.3822 41.1834 14.3822C40.6931 14.3822 40.2985 14.5077 39.9996 14.7588C39.7126 15.0099 39.5692 15.3746 39.5692 15.8529C39.5692 16.1877 39.6768 16.4687 39.892 16.6959C40.1192 16.9111 40.3942 17.0905 40.717 17.2339C41.0518 17.3655 41.5182 17.5209 42.116 17.7003C42.9291 17.9394 43.5927 18.1785 44.1068 18.4177C44.621 18.6568 45.0634 19.0155 45.4341 19.4938C45.8047 19.9721 45.9901 20.5998 45.9901 21.377C45.9901 22.0466 45.8167 22.6684 45.4699 23.2423C45.1232 23.8163 44.615 24.2766 43.9454 24.6234C43.2758 24.9582 42.4807 25.1255 41.56 25.1255ZM60.5066 14.9203C61.7262 14.9203 62.7067 15.2969 63.448 16.0502C64.2013 16.7915 64.578 17.8318 64.578 19.171V25H62.067V19.5117C62.067 18.7345 61.8697 18.1427 61.4751 17.7361C61.0805 17.3176 60.5425 17.1084 59.8609 17.1084C59.1794 17.1084 58.6353 17.3176 58.2288 17.7361C57.8342 18.1427 57.6369 18.7345 57.6369 19.5117V25H55.126V19.5117C55.126 18.7345 54.9287 18.1427 54.5341 17.7361C54.1395 17.3176 53.6014 17.1084 52.9199 17.1084C52.2264 17.1084 51.6764 17.3176 51.2698 17.7361C50.8752 18.1427 50.678 18.7345 50.678 19.5117V25H48.167V15.0637H50.678V16.2654C51.0008 15.8469 51.4133 15.5181 51.9155 15.279C52.4297 15.0398 52.9916 14.9203 53.6014 14.9203C54.3786 14.9203 55.0721 15.0877 55.682 15.4225C56.2918 15.7453 56.7641 16.2116 57.0989 16.8214C57.4217 16.2475 57.888 15.7871 58.4978 15.4404C59.1196 15.0936 59.7892 14.9203 60.5066 14.9203ZM66.315 19.996C66.315 18.9916 66.5123 18.1008 66.9069 17.3236C67.3134 16.5464 67.8575 15.9486 68.539 15.5301C69.2325 15.1116 70.0038 14.9023 70.8527 14.9023C71.594 14.9023 72.2397 15.0518 72.7897 15.3507C73.3517 15.6496 73.8001 16.0263 74.1349 16.4806V15.0637H76.6638V25H74.1349V23.5472C73.8121 24.0135 73.3637 24.4022 72.7897 24.713C72.2278 25.012 71.5761 25.1614 70.8348 25.1614C69.9978 25.1614 69.2325 24.9462 68.539 24.5157C67.8575 24.0853 67.3134 23.4815 66.9069 22.7043C66.5123 21.9151 66.315 21.0123 66.315 19.996ZM74.1349 20.0319C74.1349 19.4221 74.0153 18.9019 73.7762 18.4715C73.5371 18.0291 73.2142 17.6943 72.8077 17.4671C72.4011 17.228 71.9647 17.1084 71.4984 17.1084C71.0321 17.1084 70.6016 17.222 70.207 17.4492C69.8125 17.6763 69.4896 18.0111 69.2385 18.4535C68.9994 18.884 68.8798 19.3982 68.8798 19.996C68.8798 20.5938 68.9994 21.12 69.2385 21.5743C69.4896 22.0167 69.8125 22.3575 70.207 22.5966C70.6136 22.8358 71.044 22.9554 71.4984 22.9554C71.9647 22.9554 72.4011 22.8418 72.8077 22.6146C73.2142 22.3754 73.5371 22.0406 73.7762 21.6102C74.0153 21.1678 74.1349 20.6417 74.1349 20.0319ZM81.6272 16.6062C81.95 16.0801 82.3685 15.6676 82.8827 15.3686C83.4088 15.0697 84.0066 14.9203 84.6762 14.9203V17.5568H84.0126C83.2234 17.5568 82.6256 17.7421 82.219 18.1128C81.8245 18.4834 81.6272 19.1291 81.6272 20.0498V25H79.1162V15.0637H81.6272V16.6062ZM89.2909 17.1263V21.933C89.2909 22.2678 89.3687 22.5129 89.5241 22.6684C89.6915 22.8119 89.9665 22.8836 90.3491 22.8836H91.5149V25H89.9366C87.8202 25 86.762 23.9717 86.762 21.9151V17.1263H85.5783V15.0637H86.762V12.6066H89.2909V15.0637H91.5149V17.1263H89.2909ZM101.84 12.481V14.5077H98.5043V25H95.9934V14.5077H92.6574V12.481H101.84ZM106.183 16.6062C106.506 16.0801 106.925 15.6676 107.439 15.3686C107.965 15.0697 108.563 14.9203 109.232 14.9203V17.5568H108.569C107.78 17.5568 107.182 17.7421 106.775 18.1128C106.381 18.4834 106.183 19.1291 106.183 20.0498V25H103.672V15.0637H106.183V16.6062ZM110.278 19.996C110.278 18.9916 110.475 18.1008 110.87 17.3236C111.276 16.5464 111.82 15.9486 112.502 15.5301C113.195 15.1116 113.967 14.9023 114.816 14.9023C115.557 14.9023 116.203 15.0518 116.753 15.3507C117.315 15.6496 117.763 16.0263 118.098 16.4806V15.0637H120.627V25H118.098V23.5472C117.775 24.0135 117.327 24.4022 116.753 24.713C116.191 25.012 115.539 25.1614 114.798 25.1614C113.961 25.1614 113.195 24.9462 112.502 24.5157C111.82 24.0853 111.276 23.4815 110.87 22.7043C110.475 21.9151 110.278 21.0123 110.278 19.996ZM118.098 20.0319C118.098 19.4221 117.978 18.9019 117.739 18.4715C117.5 18.0291 117.177 17.6943 116.771 17.4671C116.364 17.228 115.928 17.1084 115.461 17.1084C114.995 17.1084 114.565 17.222 114.17 17.4492C113.775 17.6763 113.453 18.0111 113.201 18.4535C112.962 18.884 112.843 19.3982 112.843 19.996C112.843 20.5938 112.962 21.12 113.201 21.5743C113.453 22.0167 113.775 22.3575 114.17 22.5966C114.577 22.8358 115.007 22.9554 115.461 22.9554C115.928 22.9554 116.364 22.8418 116.771 22.6146C117.177 22.3754 117.5 22.0406 117.739 21.6102C117.978 21.1678 118.098 20.6417 118.098 20.0319ZM122.433 20.0319C122.433 19.0036 122.643 18.1068 123.061 17.3415C123.48 16.5643 124.06 15.9665 124.801 15.548C125.542 15.1175 126.391 14.9023 127.348 14.9023C128.579 14.9023 129.596 15.2132 130.397 15.835C131.21 16.4448 131.754 17.3057 132.029 18.4177H129.321C129.177 17.9872 128.932 17.6524 128.585 17.4133C128.251 17.1622 127.832 17.0366 127.33 17.0366C126.612 17.0366 126.044 17.2997 125.626 17.8258C125.207 18.34 124.998 19.0753 124.998 20.0319C124.998 20.9765 125.207 21.7118 125.626 22.2379C126.044 22.7521 126.612 23.0092 127.33 23.0092C128.346 23.0092 129.01 22.5548 129.321 21.6461H132.029C131.754 22.7222 131.21 23.5771 130.397 24.2108C129.584 24.8446 128.567 25.1614 127.348 25.1614C126.391 25.1614 125.542 24.9522 124.801 24.5337C124.06 24.1032 123.48 23.5054 123.061 22.7401C122.643 21.9629 122.433 21.0602 122.433 20.0319ZM139.751 25L136.379 20.7672V25H133.868V11.7277H136.379V19.2786L139.715 15.0637H142.98L138.603 20.0498L143.016 25H139.751Z" fill="#5400BC"/>
<path d="M7.18231 29.548C5.86981 28.173 4.83075 26.5792 4.06512 24.7667C3.2995 22.9542 2.91669 21.0105 2.91669 18.9355C2.91669 16.8355 3.2995 14.8792 4.06512 13.0667C4.83075 11.2542 5.86981 9.67297 7.18231 8.32297L9.26044 10.4605C8.19099 11.5605 7.35245 12.8355 6.74481 14.2855C6.13717 15.7355 5.83335 17.2855 5.83335 18.9355C5.83335 20.6105 6.13717 22.173 6.74481 23.623C7.35245 25.073 8.19099 26.3355 9.26044 27.4105L7.18231 29.548ZM11.3021 25.3105C10.5243 24.4855 9.90453 23.5292 9.44273 22.4417C8.98092 21.3542 8.75002 20.1855 8.75002 18.9355C8.75002 17.6605 8.98092 16.4792 9.44273 15.3917C9.90453 14.3042 10.5243 13.3605 11.3021 12.5605L13.3802 14.698C12.8455 15.248 12.4262 15.8855 12.1224 16.6105C11.8186 17.3355 11.6667 18.1105 11.6667 18.9355C11.6667 19.7605 11.8186 20.5355 12.1224 21.2605C12.4262 21.9855 12.8455 22.623 13.3802 23.173L11.3021 25.3105ZM17.5 21.9355C16.6979 21.9355 16.0113 21.6417 15.4401 21.0542C14.8689 20.4667 14.5834 19.7605 14.5834 18.9355C14.5834 18.1105 14.8689 17.4042 15.4401 16.8167C16.0113 16.2292 16.6979 15.9355 17.5 15.9355C18.3021 15.9355 18.9887 16.2292 19.5599 16.8167C20.1311 17.4042 20.4167 18.1105 20.4167 18.9355C20.4167 19.7605 20.1311 20.4667 19.5599 21.0542C18.9887 21.6417 18.3021 21.9355 17.5 21.9355ZM23.6979 25.3105L21.6198 23.173C22.1545 22.623 22.5738 21.9855 22.8776 21.2605C23.1814 20.5355 23.3334 19.7605 23.3334 18.9355C23.3334 18.1105 23.1814 17.3355 22.8776 16.6105C22.5738 15.8855 22.1545 15.248 21.6198 14.698L23.6979 12.5605C24.4757 13.3605 25.0955 14.3042 25.5573 15.3917C26.0191 16.4792 26.25 17.6605 26.25 18.9355C26.25 20.1855 26.0191 21.3542 25.5573 22.4417C25.0955 23.5292 24.4757 24.4855 23.6979 25.3105ZM27.8177 29.548L25.7396 27.4105C26.809 26.3105 27.6476 25.0355 28.2552 23.5855C28.8629 22.1355 29.1667 20.5855 29.1667 18.9355C29.1667 17.2605 28.8629 15.698 28.2552 14.248C27.6476 12.798 26.809 11.5355 25.7396 10.4605L27.8177 8.32297C29.1302 9.67297 30.1693 11.2542 30.9349 13.0667C31.7005 14.8792 32.0834 16.8355 32.0834 18.9355C32.0834 21.0105 31.7005 22.9542 30.9349 24.7667C30.1693 26.5792 29.1302 28.173 27.8177 29.548Z" fill="#5F00D3"/>
</svg>
